<svg width="56" height="56" viewBox="0 0 56 56" fill="none" xmlns="http://www.w3.org/2000/svg">
<rect width="56" height="56" rx="10" fill="white"/>
<path d="M29.7127 23.5771L34.2315 28.2339L19.6973 28.2339C19.3903 28.2339 19.1067 28.4027 18.9532 28.6767C18.7997 28.9507 18.7997 29.2883 18.9532 29.5623C19.1067 29.8363 19.3903 30.0051 19.6973 30.0051L34.2315 30.0051L29.7137 34.6619C29.4996 34.8862 29.4171 35.2108 29.4969 35.5146C29.5767 35.8183 29.8069 36.0555 30.1015 36.1378C30.3962 36.22 30.7111 36.135 30.9287 35.9143L36.9122 29.7467L36.9165 29.7408C36.9247 29.7324 36.933 29.7234 36.9408 29.7142L36.949 29.7046L36.9683 29.6814L36.9752 29.6729L36.9949 29.6471L36.9988 29.6412C37.006 29.6312 37.0128 29.6213 37.0193 29.6109L37.0193 29.6086L37.0193 29.6088C37.0974 29.4888 37.1456 29.351 37.1596 29.2072L37.1596 29.2009L37.1621 29.164L37.1621 29.1197L37.1621 29.0754L37.1596 29.0385L37.1596 29.0322L37.1596 29.0323C37.146 28.8888 37.0983 28.7508 37.0207 28.6309L37.0207 28.6287C37.0143 28.6184 37.0074 28.6084 37.0002 28.5984L36.9963 28.5924L36.9766 28.5666L36.9702 28.5582L36.9509 28.535L36.9427 28.5254C36.9348 28.5161 36.9266 28.5073 36.9184 28.4987L36.9183 28.4987C36.9166 28.4973 36.9151 28.4957 36.9137 28.494L30.9276 22.3248C30.71 22.104 30.3951 22.019 30.1004 22.1012C29.8058 22.1835 29.5756 22.4207 29.4958 22.7245C29.4159 23.0282 29.4985 23.3528 29.7126 23.5771L29.7127 23.5771Z" fill="#326CF6" stroke="#326CF6" stroke-width="0.4"/>
</svg>
