<svg width="33" height="35" viewBox="0 0 33 35" fill="none" xmlns="http://www.w3.org/2000/svg">
<path d="M24.7479 24.6082C24.7479 26.4427 21.1083 27.8638 16.6229 27.8638C12.1376 27.8638 8.49805 26.4427 8.49805 24.6082C8.49805 22.7737 10.6884 20.4877 15.1738 20.4877C19.6638 20.4877 24.7479 22.7737 24.7479 24.6082Z" stroke="#326CF6" stroke-width="0.8" stroke-miterlimit="10" stroke-linecap="round" stroke-linejoin="round"/>
<path d="M10.3413 18.3539C10.3413 19.8368 13.0829 20.4879 16.6274 20.4879C20.172 20.4879 23.0466 19.9081 23.0466 18.43C23.0466 16.9472 20.7611 15.6022 17.2166 15.6022C13.672 15.6022 10.3413 16.8711 10.3413 18.3539Z" stroke="#326CF6" stroke-width="0.8" stroke-miterlimit="10" stroke-linecap="round" stroke-linejoin="round"/>
<path d="M21.1166 13.9097C21.1166 14.8413 19.1353 15.5969 16.6931 15.5969C14.2508 15.5969 12.2695 14.8413 12.2695 13.9097C12.2695 12.3699 14.0845 11.8043 16.6931 12.2226C19.1781 12.5172 21.1166 12.9782 21.1166 13.9097Z" stroke="#326CF6" stroke-width="0.8" stroke-miterlimit="10" stroke-linecap="round" stroke-linejoin="round"/>
<path d="M19.5011 11.0109C19.5011 11.7855 18.1517 12.0897 16.6217 12.0897C15.0918 12.0897 13.8564 11.4624 13.8564 10.6877C13.8564 9.91299 15.0965 9.28564 16.6217 9.28564C18.1469 9.28564 19.5011 10.2362 19.5011 11.0109Z" stroke="#326CF6" stroke-width="0.8" stroke-miterlimit="10" stroke-linecap="round" stroke-linejoin="round"/>
<path d="M4.80649 27.7592C2.51156 24.8981 1.12891 21.1958 1.12891 17.1513C1.12891 8.09282 8.07069 0.75 16.628 0.75C25.19 0.75 32.1271 8.09282 32.1271 17.1513C32.1271 21.2766 30.6874 25.0455 28.3117 27.9256" stroke="#326CF6" stroke-width="0.8" stroke-miterlimit="10" stroke-linecap="round" stroke-linejoin="round"/>
<path d="M1 27.9255H32.25" stroke="#326CF6" stroke-width="0.8" stroke-miterlimit="10" stroke-linecap="round" stroke-linejoin="round"/>
<path d="M7.94141 34.2085H18.6178" stroke="#326CF6" stroke-width="0.8" stroke-miterlimit="10" stroke-linecap="round" stroke-linejoin="round"/>
<path d="M22.2637 34.2085H25.3093" stroke="#326CF6" stroke-width="0.8" stroke-miterlimit="10" stroke-linecap="round" stroke-linejoin="round"/>
<path d="M13.2065 31.0673H28.7769" stroke="#326CF6" stroke-width="0.8" stroke-miterlimit="10" stroke-linecap="round" stroke-linejoin="round"/>
<path d="M4.47217 31.0674H7.46555" stroke="#326CF6" stroke-width="0.8" stroke-miterlimit="10" stroke-linecap="round" stroke-linejoin="round"/>
</svg>
