<svg width="29" height="33" viewBox="0 0 29 33" fill="none" xmlns="http://www.w3.org/2000/svg">
<path d="M16.2539 29.0969C15.2091 28.2652 13.1759 29.4845 12.2704 29.933C8.1388 31.8622 3.46301 32.167 1.37763 30.8606C0.293581 30.2379 0.167325 28.6223 1.26008 27.8689C2.26577 27.1765 3.70246 27.0894 4.88665 27.0589C5.41779 27.0459 5.90539 26.7105 6.09695 26.201C7.42916 22.6955 6.4496 19.7429 6.44089 19.6123" stroke="#326CF6" stroke-width="0.8" stroke-miterlimit="10" stroke-linecap="round" stroke-linejoin="round"/>
<path d="M13.7169 19.6123C13.7082 19.7429 12.7286 22.6955 14.0608 26.201C14.2524 26.7105 14.74 27.0459 15.2711 27.0589C16.4553 27.0894 17.892 27.1765 18.8977 27.8689C19.9904 28.6223 19.8642 30.2422 18.7801 30.8606C16.6947 32.167 12.019 31.8622 7.88737 29.933C6.97746 29.4802 4.94432 28.2608 3.90381 29.0969" stroke="#326CF6" stroke-width="0.8" stroke-miterlimit="10" stroke-linecap="round" stroke-linejoin="round"/>
<path d="M10.0754 14.0077C11.8739 14.0077 13.3319 12.4441 13.3319 10.5152C13.3319 8.58635 11.8739 7.02271 10.0754 7.02271C8.27683 7.02271 6.81885 8.58635 6.81885 10.5152C6.81885 12.4441 8.27683 14.0077 10.0754 14.0077Z" stroke="#326CF6" stroke-width="0.8" stroke-miterlimit="10" stroke-linecap="round" stroke-linejoin="round"/>
<path d="M1.72705 25.6653C3.89951 24.803 3.06796 19.8343 3.58169 18.0009C3.99093 16.5421 5.41892 16.3287 5.97618 16.3026C6.22434 16.2895 6.87302 16.2547 7.10812 16.185C8.67978 15.7277 8.74943 14.6434 8.82345 13.7594" stroke="#326CF6" stroke-width="0.8" stroke-miterlimit="10" stroke-linecap="round" stroke-linejoin="round"/>
<path d="M11.3296 13.7638C11.3992 14.6478 11.4689 15.7321 13.0449 16.1894C13.28 16.2591 13.9331 16.2939 14.1769 16.307C14.7385 16.3331 16.1665 16.5465 16.5713 18.0053C17.0851 19.8387 16.2492 24.8074 18.426 25.6697" stroke="#326CF6" stroke-width="0.8" stroke-miterlimit="10" stroke-linecap="round" stroke-linejoin="round"/>
<path d="M20.5206 12.8667C20.9864 12.9843 21.4784 13.0452 21.979 13.0452C25.3052 13.0452 28.0001 10.3496 28.0001 7.02261C28.0001 3.69559 25.3052 1 21.979 1C18.6485 1 15.9536 3.69559 15.9536 7.02261C15.9536 8.78193 16.7068 10.3671 17.9127 11.4688L16.6415 13.8596L20.5206 12.8667Z" stroke="#326CF6" stroke-width="0.8" stroke-miterlimit="10" stroke-linecap="round" stroke-linejoin="round"/>
<path d="M21.9743 10.6414C23.9724 10.6414 25.5922 9.0212 25.5922 7.0226C25.5922 5.024 23.9724 3.40381 21.9743 3.40381C19.9762 3.40381 18.3564 5.024 18.3564 7.0226C18.3564 9.0212 19.9762 10.6414 21.9743 10.6414Z" stroke="#326CF6" stroke-width="0.8" stroke-miterlimit="10" stroke-linecap="round" stroke-linejoin="round"/>
<path d="M23.0707 8.35522C23.0707 8.35522 22.7659 8.85602 21.9736 8.85602C21.1812 8.85602 20.8765 8.35522 20.8765 8.35522" stroke="#326CF6" stroke-width="0.8" stroke-miterlimit="10" stroke-linecap="round" stroke-linejoin="round"/>
<path d="M20.5127 5.90784V6.27799" stroke="#326CF6" stroke-width="0.8" stroke-miterlimit="10" stroke-linecap="round" stroke-linejoin="round"/>
<path d="M23.4375 5.90784V6.27799" stroke="#326CF6" stroke-width="0.8" stroke-miterlimit="10" stroke-linecap="round" stroke-linejoin="round"/>
</svg>
