<svg width="29" height="36" viewBox="0 0 29 36" fill="none" xmlns="http://www.w3.org/2000/svg">
<path d="M3.23952 35.5333C4.3204 30.9656 5.73843 27.2956 4.14686 24.1861C3.83946 23.586 1.40004 19.8614 0.631527 14.0936C0.358828 12.0652 0.477823 10.0219 1.29592 8.12739C3.11061 3.92674 7.24571 1.204 11.8221 1.13953C18.1685 1.13953 21.6988 3.49526 23.5729 5.95515C25.2785 8.19186 25.7545 10.989 25.2686 12.9579C25.2686 12.9678 25.2637 12.9728 25.2637 12.9827C24.9463 14.3019 25.4719 15.6757 26.5726 16.4692C26.885 16.6923 27.2172 16.9205 27.5593 17.2627C28.422 18.1207 27.956 19.6333 26.7015 19.8416C26.0471 19.9507 25.6058 20.5905 25.7644 21.2352C25.8785 21.7113 26.1165 22.2172 26.1264 22.7925C26.1413 23.7 24.391 23.8835 23.9299 23.9629C23.8704 23.9728 23.8556 24.0472 23.9051 24.077C24.3315 24.3398 25.9925 25.2573 25.3827 26.3087C25.1843 26.646 25.0951 27.1469 25.229 27.7221C25.3628 28.3024 25.3133 30.43 22.4623 30.3804C18.9371 30.3259 16.5918 30.2068 15.7837 35.5283" stroke="#326CF6" stroke-width="0.8" stroke-miterlimit="10" stroke-linecap="round" stroke-linejoin="round"/>
<path d="M17.9652 16.4804C20.9064 13.5385 20.9064 8.76865 17.9652 5.8267C15.024 2.88476 10.2554 2.88476 7.31425 5.8267C4.37307 8.76865 4.37307 13.5385 7.31426 16.4804C10.2554 19.4224 15.024 19.4224 17.9652 16.4804Z" stroke="#326CF6" stroke-width="0.8" stroke-miterlimit="10" stroke-linecap="round" stroke-linejoin="round"/>
<path d="M11.4594 3.72314C10.3984 5.0126 9.11916 6.19791 9.55548 8.16681C10.329 11.6632 14.9549 10.6366 15.7284 14.133C16.1647 16.1069 14.8855 17.2922 13.8245 18.5767" stroke="#326CF6" stroke-width="0.8" stroke-miterlimit="10" stroke-linecap="round" stroke-linejoin="round"/>
<path d="M13.6121 8.06796C13.9029 7.62325 13.7782 7.02695 13.3337 6.73608C12.8891 6.44521 12.2929 6.56991 12.0021 7.01461C11.7113 7.45932 11.836 8.05562 12.2806 8.3465C12.7252 8.63737 13.3213 8.51266 13.6121 8.06796Z" stroke="#326CF6" stroke-width="0.8" stroke-miterlimit="10" stroke-linecap="round" stroke-linejoin="round"/>
<path d="M13.1372 15.3311C13.4317 14.8889 13.312 14.2916 12.8699 13.997C12.4279 13.7024 11.8307 13.822 11.5362 14.2643C11.2417 14.7065 11.3613 15.3038 11.8034 15.5983C12.2455 15.8929 12.8426 15.7733 13.1372 15.3311Z" stroke="#326CF6" stroke-width="0.8" stroke-miterlimit="10" stroke-linecap="round" stroke-linejoin="round"/>
</svg>
