<svg width="32" height="33" viewBox="0 0 32 33" fill="none" xmlns="http://www.w3.org/2000/svg">
<path d="M31 30.5776V15.2136" stroke="#326CF6" stroke-width="0.8" stroke-miterlimit="10" stroke-linecap="round" stroke-linejoin="round"/>
<path d="M19.2612 30.5776V15.2136" stroke="#326CF6" stroke-width="0.8" stroke-miterlimit="10" stroke-linecap="round" stroke-linejoin="round"/>
<path d="M19.2612 30.5778C19.2612 31.1793 21.8907 31.6623 25.1304 31.6623C28.3745 31.6623 30.9996 31.1749 30.9996 30.5778" stroke="#326CF6" stroke-width="0.8" stroke-miterlimit="10" stroke-linecap="round" stroke-linejoin="round"/>
<path d="M27.2814 14.2039C29.4588 14.3619 30.9996 14.7527 30.9996 15.2138C30.9996 15.7012 29.2612 16.1139 26.8732 16.25C26.5395 16.2676 26.1971 16.2852 25.8416 16.2896C25.6089 16.294 25.3719 16.2983 25.1304 16.2983C24.889 16.2983 24.6519 16.294 24.4193 16.2896C24.0637 16.2808 23.7213 16.2676 23.3877 16.25C20.9952 16.1139 19.2612 15.7012 19.2612 15.2138C19.2612 14.7571 20.8021 14.3619 22.9794 14.2039" stroke="#326CF6" stroke-width="0.8" stroke-miterlimit="10" stroke-linecap="round" stroke-linejoin="round"/>
<path d="M25.1313 14.9899V12.9569" stroke="#326CF6" stroke-width="0.8" stroke-miterlimit="10" stroke-linecap="round" stroke-linejoin="round"/>
<path d="M25.0167 12.9568C26.0791 12.9568 27.2248 11.8942 27.2248 10.7745C27.238 8.4122 25.0167 6.4187 25.0167 6.4187C25.0123 6.43187 25.0475 7.91602 23.8359 8.96106C23.2169 9.49676 22.9096 10.3223 23.0896 11.1346C23.3047 12.1225 24.029 12.9568 25.0167 12.9568Z" stroke="#326CF6" stroke-width="0.8" stroke-miterlimit="10" stroke-linecap="round" stroke-linejoin="round"/>
<path d="M9.03711 28.3514V17.9272" stroke="#326CF6" stroke-width="0.8" stroke-miterlimit="10" stroke-linecap="round" stroke-linejoin="round"/>
<path d="M9.03711 14.845V0.75" stroke="#326CF6" stroke-width="0.8" stroke-miterlimit="10" stroke-linecap="round" stroke-linejoin="round"/>
<path d="M12.6856 27.8728L10.021 17.9272" stroke="#326CF6" stroke-width="0.8" stroke-miterlimit="10" stroke-linecap="round" stroke-linejoin="round"/>
<path d="M9.03758 14.8449L5.38965 1.23291" stroke="#326CF6" stroke-width="0.8" stroke-miterlimit="10" stroke-linecap="round" stroke-linejoin="round"/>
<path d="M5.38965 27.8728L6.23688 24.7069L8.05426 17.9272" stroke="#326CF6" stroke-width="0.8" stroke-miterlimit="10" stroke-linecap="round" stroke-linejoin="round"/>
<path d="M12.685 1.23291L9.03711 14.8449" stroke="#326CF6" stroke-width="0.8" stroke-miterlimit="10" stroke-linecap="round" stroke-linejoin="round"/>
<path d="M4.47217 17.7561V15.7582C4.47217 15.2796 4.85847 14.8932 5.33696 14.8932H12.7338C13.2123 14.8932 13.5986 15.2796 13.5986 15.7582V17.7561" stroke="#326CF6" stroke-width="0.8" stroke-miterlimit="10" stroke-linecap="round" stroke-linejoin="round"/>
<path d="M1 25.247C1.44337 25.3393 1.96576 25.3963 2.62423 25.3963C5.83319 25.3963 5.83319 24.0176 9.04214 24.0176C12.2511 24.0176 12.2511 25.3963 15.4601 25.3963C16.1185 25.3963 16.6409 25.3393 17.0843 25.247" stroke="#326CF6" stroke-width="0.8" stroke-miterlimit="10" stroke-linecap="round" stroke-linejoin="round"/>
<path d="M17.0799 30.5777C17.0799 31.1792 13.4802 31.6622 9.04214 31.6622C4.59965 31.6622 1 31.1749 1 30.5777V19.4247C1 18.5026 1.74627 17.7561 2.66813 17.7561H15.4162C16.338 17.7561 17.0843 18.5026 17.0843 19.4247V30.5777H17.0799Z" stroke="#326CF6" stroke-width="0.8" stroke-miterlimit="10" stroke-linecap="round" stroke-linejoin="round"/>
</svg>
