<svg width="37" height="21" viewBox="0 0 37 21" fill="none" xmlns="http://www.w3.org/2000/svg">
<path d="M17.3004 12.7594C17.2552 12.4712 17.2305 12.1748 17.2305 11.8742C17.2305 10.3345 17.8437 8.96348 18.7945 8.10303C19.7453 8.9676 20.3586 10.3345 20.3586 11.8742C20.3586 12.1789 20.3339 12.4712 20.2886 12.7594" stroke="#326CF6" stroke-width="0.8" stroke-miterlimit="10" stroke-linecap="round" stroke-linejoin="round"/>
<path d="M14.179 11.7839C13.9979 11.2816 13.9156 10.7711 13.9403 10.2771C14.7553 10.24 15.6279 10.487 16.4017 11.0058" stroke="#326CF6" stroke-width="0.8" stroke-miterlimit="10" stroke-linecap="round" stroke-linejoin="round"/>
<path d="M21.1821 11.0058C21.9559 10.487 22.8285 10.24 23.6435 10.2771C23.6682 10.7711 23.5858 11.2857 23.4047 11.7839" stroke="#326CF6" stroke-width="0.8" stroke-miterlimit="10" stroke-linecap="round" stroke-linejoin="round"/>
<path d="M21.8037 13.0015C20.3549 13.5285 19.2806 14.5742 18.7949 15.7599C19.9309 16.3569 21.425 16.4639 22.8738 15.937C24.3226 15.41 25.3969 14.3643 25.8826 13.1786C24.7466 12.5816 23.2525 12.4745 21.8037 13.0015Z" stroke="#326CF6" stroke-width="0.8" stroke-miterlimit="10" stroke-linecap="round" stroke-linejoin="round"/>
<path d="M15.7864 13.0015C17.2352 13.5285 18.3095 14.5742 18.7952 15.7599C17.6592 16.3569 16.1651 16.4639 14.7163 15.937C13.2675 15.41 12.1932 14.3643 11.7075 13.1786C12.8435 12.5816 14.3376 12.4745 15.7864 13.0015Z" stroke="#326CF6" stroke-width="0.8" stroke-miterlimit="10" stroke-linecap="round" stroke-linejoin="round"/>
<path d="M27.0599 8.62606L29.2907 2.73049C29.5418 2.07177 29.2084 1.33482 28.5498 1.08369C27.8913 0.832548 27.1545 1.16603 26.9035 1.82475L25.5781 5.32421" stroke="#326CF6" stroke-width="0.8" stroke-miterlimit="10" stroke-linecap="round" stroke-linejoin="round"/>
<path d="M31.3228 4.57011L31.9772 2.84096C32.2283 2.18224 31.8949 1.4453 31.2364 1.19416C30.5778 0.943022 29.8411 1.2765 29.59 1.93522L28.9355 3.66436" stroke="#326CF6" stroke-width="0.8" stroke-miterlimit="10" stroke-linecap="round" stroke-linejoin="round"/>
<path d="M24.6723 7.72031L25.5778 5.32421L26.2857 3.45509C26.5327 2.79637 26.2034 2.06354 25.5449 1.81241C24.8863 1.56127 24.1578 1.87004 23.9026 2.55347C23.7668 2.89518 22.5155 6.10644 21.5112 8.72486" stroke="#326CF6" stroke-width="0.8" stroke-miterlimit="10" stroke-linecap="round" stroke-linejoin="round"/>
<path d="M29.4464 9.53235L31.3274 4.57135L31.4961 4.12259C31.6196 3.79323 31.8666 3.54621 32.1629 3.41035C32.4593 3.27449 32.8091 3.2539 33.1384 3.38153C33.7969 3.63267 34.1303 4.36961 33.8793 5.02833C33.7475 5.37416 30.817 13.11 30.6976 13.4229C31.883 13.357 32.237 12.6036 34.0809 11.4962C34.9741 10.9609 35.6862 11.0639 36.1842 11.3109C36.7316 11.5826 36.7028 12.2743 36.2171 12.686C33.3977 15.0903 32.8215 16.0784 30.4918 18.141C28.6479 19.7178 26.2565 20.3107 24.0257 19.4667C23.1943 19.1538 22.4699 18.6762 21.873 18.0834" stroke="#326CF6" stroke-width="0.8" stroke-miterlimit="10" stroke-linecap="round" stroke-linejoin="round"/>
<path d="M10.5303 8.62606L8.29948 2.73049C8.04841 2.07177 8.3818 1.33482 9.04035 1.08369C9.69891 0.832548 10.4357 1.16603 10.6867 1.82475L12.0121 5.32421" stroke="#326CF6" stroke-width="0.8" stroke-miterlimit="10" stroke-linecap="round" stroke-linejoin="round"/>
<path d="M6.26203 4.57011L5.60759 2.84096C5.35652 2.18224 5.68991 1.4453 6.34846 1.19416C7.00701 0.943022 7.74377 1.2765 7.99484 1.93522L8.64927 3.66436" stroke="#326CF6" stroke-width="0.8" stroke-miterlimit="10" stroke-linecap="round" stroke-linejoin="round"/>
<path d="M12.9127 7.72031L12.0072 5.32421L11.2993 3.45509C11.0523 2.79637 11.3816 2.06354 12.0401 1.81241C12.6987 1.56127 13.4272 1.87004 13.6824 2.55347C13.8141 2.89518 15.0695 6.10644 16.0738 8.72486" stroke="#326CF6" stroke-width="0.8" stroke-miterlimit="10" stroke-linecap="round" stroke-linejoin="round"/>
<path d="M8.14168 9.53235L6.26069 4.57135L6.09194 4.12259C5.96846 3.79323 5.7215 3.54621 5.42516 3.41035C5.12881 3.27449 4.77895 3.2539 4.44968 3.38153C3.79113 3.63267 3.45774 4.36961 3.70881 5.02833C3.84052 5.37416 6.77107 13.11 6.89044 13.4229C5.70504 13.357 5.35107 12.6036 3.50713 11.4962C2.61397 10.9609 1.90191 11.0639 1.40388 11.3109C0.856459 11.5826 0.885269 12.2743 1.37095 12.686C4.19037 15.0903 4.76661 16.0784 7.09623 18.141C8.94018 19.7178 11.3315 20.3107 13.5624 19.4667C14.3938 19.1538 15.1182 18.6762 15.715 18.0834" stroke="#326CF6" stroke-width="0.8" stroke-miterlimit="10" stroke-linecap="round" stroke-linejoin="round"/>
</svg>
