<svg width="32" height="32" viewBox="0 0 32 32" fill="none" xmlns="http://www.w3.org/2000/svg">
<path d="M21.6665 15.5763C19.7525 15.275 17.7227 15.8637 16.2489 17.3378C14.7752 18.8119 14.1866 20.8423 14.4832 22.7568C16.3972 23.0581 18.4271 22.4694 19.9008 20.9906C21.3792 19.5165 21.9677 17.4908 21.6665 15.5763Z" stroke="#326CF6" stroke-width="0.8" stroke-miterlimit="10" stroke-linecap="round" stroke-linejoin="round"/>
<path d="M18.0747 20.2861C18.694 20.2861 19.1962 19.7838 19.1962 19.1643C19.1962 18.5447 18.694 18.0425 18.0747 18.0425C17.4553 18.0425 16.9531 18.5447 16.9531 19.1643C16.9531 19.7838 17.4553 20.2861 18.0747 20.2861Z" stroke="#326CF6" stroke-width="0.8" stroke-miterlimit="10" stroke-linecap="round" stroke-linejoin="round"/>
<path d="M15.0157 16.1047L14.2788 15.3677" stroke="#326CF6" stroke-width="0.8" stroke-miterlimit="10" stroke-linecap="round" stroke-linejoin="round"/>
<path d="M13.4308 18.4224L12.541 17.8939" stroke="#326CF6" stroke-width="0.8" stroke-miterlimit="10" stroke-linecap="round" stroke-linejoin="round"/>
<path d="M17.3335 14.5197L16.8052 13.6296" stroke="#326CF6" stroke-width="0.8" stroke-miterlimit="10" stroke-linecap="round" stroke-linejoin="round"/>
<path d="M12.7908 20.875L11.8037 20.5876" stroke="#326CF6" stroke-width="0.8" stroke-miterlimit="10" stroke-linecap="round" stroke-linejoin="round"/>
<path d="M19.7844 13.8797L19.4971 12.8923" stroke="#326CF6" stroke-width="0.8" stroke-miterlimit="10" stroke-linecap="round" stroke-linejoin="round"/>
<path d="M21.1377 22.229L21.8746 22.9661" stroke="#326CF6" stroke-width="0.8" stroke-miterlimit="10" stroke-linecap="round" stroke-linejoin="round"/>
<path d="M18.8203 23.8137L19.3486 24.7037" stroke="#326CF6" stroke-width="0.8" stroke-miterlimit="10" stroke-linecap="round" stroke-linejoin="round"/>
<path d="M22.7231 19.9109L23.613 20.4393" stroke="#326CF6" stroke-width="0.8" stroke-miterlimit="10" stroke-linecap="round" stroke-linejoin="round"/>
<path d="M16.3696 24.454L16.6569 25.4414" stroke="#326CF6" stroke-width="0.8" stroke-miterlimit="10" stroke-linecap="round" stroke-linejoin="round"/>
<path d="M23.3618 17.4587L24.3489 17.7461" stroke="#326CF6" stroke-width="0.8" stroke-miterlimit="10" stroke-linecap="round" stroke-linejoin="round"/>
<path d="M22.0001 31.4624C20.2807 29.7426 19.3909 28.5328 17.514 28.0275C15.6649 27.5315 14.0568 26.8269 12.5923 25.4918C9.38998 22.2886 4.67219 17.5047 1.5996 14.3711C0.788589 13.5599 0.81176 12.3083 1.5996 11.5202C2.38744 10.7322 3.66189 10.7322 4.44974 11.5202L9.5429 16.6147" stroke="#326CF6" stroke-width="0.8" stroke-miterlimit="10" stroke-linecap="round" stroke-linejoin="round"/>
<path d="M12.3937 13.7637L5.3541 6.72226C4.56626 5.93421 3.29181 5.93421 2.50397 6.72226C1.71613 7.51031 1.71613 8.78509 2.50397 9.57313L6.68417 13.7544" stroke="#326CF6" stroke-width="0.8" stroke-miterlimit="10" stroke-linecap="round" stroke-linejoin="round"/>
<path d="M9.31557 4.98418L7.24863 2.91672C6.46079 2.12867 5.18634 2.12867 4.3985 2.91672C3.61066 3.70476 3.61066 4.97954 4.3985 5.76759L6.46543 7.83506" stroke="#326CF6" stroke-width="0.8" stroke-miterlimit="10" stroke-linecap="round" stroke-linejoin="round"/>
<path d="M15.2429 10.9131L8.778 4.44653C8.38408 4.05251 8.18945 3.53797 8.18945 3.01879C8.18945 2.50424 8.38408 1.98506 8.778 1.59103C9.56585 0.802989 10.8403 0.802989 11.6281 1.59103C12.0406 2.0036 21.2862 11.2515 21.6569 11.6224C22.3335 9.87015 21.4762 8.86887 21.0776 5.49418C20.8876 3.85782 21.4947 2.89826 22.1713 2.34199C22.9175 1.7301 23.8953 2.22147 24.1734 3.18566C25.0076 6.06435 25.9344 7.55237 26.9401 10.1158C28.3999 13.8196 28.1311 15.8315 28.1311 15.8268C28.0199 17.6718 28.5668 19.5028 29.7114 20.9491C30.1007 21.4405 30.5363 21.8994 30.9998 22.363" stroke="#326CF6" stroke-width="0.8" stroke-miterlimit="10" stroke-linecap="round" stroke-linejoin="round"/>
</svg>
