<svg width="35" height="31" viewBox="0 0 35 31" fill="none" xmlns="http://www.w3.org/2000/svg">
<path d="M15.0093 7.89917C15.4699 6.08703 16.3987 4.51676 17.627 3.39954C18.8552 4.51676 19.7841 6.08319 20.2447 7.89917" stroke="#326CF6" stroke-width="0.8" stroke-miterlimit="10" stroke-linecap="round" stroke-linejoin="round"/>
<path d="M11.5819 16.3532C11.0944 15.8234 10.653 15.2283 10.273 14.568C8.90275 12.1953 8.63022 9.53851 9.32495 7.36548C10.7259 7.66878 12.1039 8.40208 13.2707 9.49244" stroke="#326CF6" stroke-width="0.8" stroke-miterlimit="10" stroke-linecap="round" stroke-linejoin="round"/>
<path d="M21.9839 9.49244C23.1507 8.40208 24.5287 7.66878 25.9296 7.36548C26.6244 9.53851 26.3519 12.1953 24.9816 14.568C24.6016 15.2283 24.1602 15.8234 23.6727 16.3532" stroke="#326CF6" stroke-width="0.8" stroke-miterlimit="10" stroke-linecap="round" stroke-linejoin="round"/>
<path d="M27.3572 12.6752C28.6545 12.7443 29.8751 13.0745 30.9345 13.6311C30.021 15.8618 28.002 17.8236 25.2845 18.8103C25.227 18.8295 25.1694 18.8526 25.1118 18.8718" stroke="#326CF6" stroke-width="0.8" stroke-miterlimit="10" stroke-linecap="round" stroke-linejoin="round"/>
<path d="M7.8932 12.6752C6.59586 12.7443 5.37528 13.0745 4.31592 13.6311C5.22943 15.8618 7.24837 17.8236 9.96587 18.8103C10.0234 18.8295 10.081 18.8526 10.1424 18.8718" stroke="#326CF6" stroke-width="0.8" stroke-miterlimit="10" stroke-linecap="round" stroke-linejoin="round"/>
<path d="M17.627 1.72946V1" stroke="#326CF6" stroke-width="0.8" stroke-miterlimit="10" stroke-linecap="round" stroke-linejoin="round"/>
<path d="M11.7809 2.73923L11.5391 2.052" stroke="#326CF6" stroke-width="0.8" stroke-miterlimit="10" stroke-linecap="round" stroke-linejoin="round"/>
<path d="M13.1665 6.68215L12.3105 4.24805" stroke="#326CF6" stroke-width="0.8" stroke-miterlimit="10" stroke-linecap="round" stroke-linejoin="round"/>
<path d="M3.77851 7.98751L3.21045 7.53064" stroke="#326CF6" stroke-width="0.8" stroke-miterlimit="10" stroke-linecap="round" stroke-linejoin="round"/>
<path d="M7.29423 10.8361L5.02197 8.99707" stroke="#326CF6" stroke-width="0.8" stroke-miterlimit="10" stroke-linecap="round" stroke-linejoin="round"/>
<path d="M23.4727 2.73923L23.7145 2.052" stroke="#326CF6" stroke-width="0.8" stroke-miterlimit="10" stroke-linecap="round" stroke-linejoin="round"/>
<path d="M22.083 6.68215L22.9389 4.24805" stroke="#326CF6" stroke-width="0.8" stroke-miterlimit="10" stroke-linecap="round" stroke-linejoin="round"/>
<path d="M7.53612 4.8853L7.12158 4.28638" stroke="#326CF6" stroke-width="0.8" stroke-miterlimit="10" stroke-linecap="round" stroke-linejoin="round"/>
<path d="M27.7144 4.88543L28.1289 4.2865" stroke="#326CF6" stroke-width="0.8" stroke-miterlimit="10" stroke-linecap="round" stroke-linejoin="round"/>
<path d="M31.4712 7.98739L32.0393 7.53052" stroke="#326CF6" stroke-width="0.8" stroke-miterlimit="10" stroke-linecap="round" stroke-linejoin="round"/>
<path d="M27.9556 10.8361L30.2317 8.99707" stroke="#326CF6" stroke-width="0.8" stroke-miterlimit="10" stroke-linecap="round" stroke-linejoin="round"/>
<path d="M1.41402 12.3604L0.75 12.0609" stroke="#326CF6" stroke-width="0.8" stroke-miterlimit="10" stroke-linecap="round" stroke-linejoin="round"/>
<path d="M33.8359 12.3604L34.5 12.0609" stroke="#326CF6" stroke-width="0.8" stroke-miterlimit="10" stroke-linecap="round" stroke-linejoin="round"/>
<path d="M23.0576 28.1859C22.1403 27.4526 20.3516 28.5276 19.5533 28.923C15.9184 30.62 11.8038 30.8887 9.97291 29.7369C9.01718 29.1879 8.90971 27.7674 9.86928 27.1032C10.7521 26.4928 12.0187 26.416 13.0589 26.3891C13.5272 26.3776 13.9532 26.082 14.1259 25.6366C15.2966 22.5537 14.4368 19.9583 14.4292 19.8431" stroke="#326CF6" stroke-width="0.8" stroke-miterlimit="10" stroke-linecap="round" stroke-linejoin="round"/>
<path d="M20.8277 19.8431C20.82 19.9583 19.9564 22.5537 21.1309 25.6366C21.2998 26.0858 21.7258 26.3776 22.1979 26.3891C23.2381 26.416 24.5047 26.4928 25.3875 27.1032C26.3471 27.7674 26.2396 29.1879 25.2839 29.7369C23.4492 30.8849 19.3384 30.62 15.7036 28.923C14.9052 28.5276 13.1166 27.4526 12.1992 28.1859" stroke="#326CF6" stroke-width="0.8" stroke-miterlimit="10" stroke-linecap="round" stroke-linejoin="round"/>
<path d="M17.627 14.9136C19.2084 14.9136 20.4904 13.5385 20.4904 11.8422C20.4904 10.1459 19.2084 8.77075 17.627 8.77075C16.0456 8.77075 14.7637 10.1459 14.7637 11.8422C14.7637 13.5385 16.0456 14.9136 17.627 14.9136Z" stroke="#326CF6" stroke-width="0.8" stroke-miterlimit="10" stroke-linecap="round" stroke-linejoin="round"/>
<path d="M17.1053 20.3844V21.5208C17.1053 21.6821 16.994 21.8203 16.8366 21.8548C16.0536 22.0238 14.3494 22.5997 12.5877 22.7225C12.1578 22.7532 11.7394 22.5689 11.463 22.2349C11.1828 21.8932 11.0907 21.4364 11.2174 21.014C11.5283 19.9659 11.9275 19.0714 12.2038 18.4302C12.7911 17.1594 13.8197 16.9598 14.311 16.9367C14.5298 16.9252 14.8177 16.8945 15.025 16.8369C16.4106 16.4338 16.472 15.4816 16.5334 14.7023" stroke="#326CF6" stroke-width="0.8" stroke-miterlimit="10" stroke-linecap="round" stroke-linejoin="round"/>
<path d="M18.7135 14.6985C18.7749 15.4779 18.8363 16.43 20.2219 16.8331C20.4292 16.8946 20.7209 16.9253 20.9359 16.9329C21.431 16.956 22.4558 17.1556 23.0431 18.4264C23.3194 19.0676 23.7186 19.9621 24.0295 21.0103C24.1562 21.4326 24.0602 21.8894 23.7839 22.2311C23.5114 22.5652 23.093 22.7494 22.6593 22.7187C20.8975 22.5959 19.1933 22.0238 18.4103 21.8511C18.2529 21.8165 18.1416 21.6783 18.1416 21.517V20.3806" stroke="#326CF6" stroke-width="0.8" stroke-miterlimit="10" stroke-linecap="round" stroke-linejoin="round"/>
</svg>
